<?xml version="1.0" encoding="utf-8"?>
<!-- Generator: Adobe Illustrator 18.0.0, SVG Export Plug-In . SVG Version: 6.00 Build 0)  -->
<!DOCTYPE svg PUBLIC "-//W3C//DTD SVG 1.1//EN" "http://www.w3.org/Graphics/SVG/1.1/DTD/svg11.dtd">
<svg version="1.1" id="Capa_1" xmlns="http://www.w3.org/2000/svg" xmlns:xlink="http://www.w3.org/1999/xlink" x="0px" y="0px"
	 viewBox="0 0 42.5 42.5" enable-background="new 0 0 42.5 42.5" xml:space="preserve">
<g>
	<path fill="#C9CDCE" d="M40,39.5h-3.3V11.9c0-0.3-0.2-0.5-0.5-0.5h-5.3c-0.3,0-0.5,0.2-0.5,0.5v27.6h-2V16.9c0-0.3-0.2-0.5-0.5-0.5
		h-5.3c-0.3,0-0.5,0.2-0.5,0.5v22.6h-2V21.3c0-0.3-0.2-0.5-0.5-0.5h-5.3c-0.3,0-0.5,0.2-0.5,0.5v18.2h-2v-29c0-0.3-0.2-0.5-0.5-0.5
		H6.1c-0.3,0-0.5,0.2-0.5,0.5v29H3v-37C3,2.2,2.8,2,2.5,2S2,2.2,2,2.5V40c0,0.3,0.2,0.5,0.5,0.5h3.6h5.3h3h5.3h3h5.3h3h5.3H40
		c0.3,0,0.5-0.2,0.5-0.5S40.3,39.5,40,39.5z M6.6,39.5V11.1h4.3v28.5H6.6z M14.9,39.5V21.8h4.3v17.7H14.9z M23.2,39.5V17.4h4.3v22.1
		H23.2z M31.4,39.5V12.4h4.3v27.1H31.4z"/>
</g>
</svg>
