<?xml version="1.0" encoding="utf-8"?>
<!-- Generator: Adobe Illustrator 18.0.0, SVG Export Plug-In . SVG Version: 6.00 Build 0)  -->
<!DOCTYPE svg PUBLIC "-//W3C//DTD SVG 1.1//EN" "http://www.w3.org/Graphics/SVG/1.1/DTD/svg11.dtd">
<svg version="1.1" id="Capa_1" xmlns="http://www.w3.org/2000/svg" xmlns:xlink="http://www.w3.org/1999/xlink" x="0px" y="0px"
	 viewBox="0 0 42.5 42.5" enable-background="new 0 0 42.5 42.5" xml:space="preserve">
<g>
	<path fill="#C9CDCE" d="M40,39.5H3V11.8l9.4,9.5c0.2,0.2,0.5,0.2,0.7,0l5.3-4.9l7.8,17.1c0.1,0.1,0.2,0.3,0.4,0.3c0,0,0.1,0,0.1,0
		c0.1,0,0.2,0,0.3-0.1l13.3-12.1c0.2-0.2,0.2-0.5,0-0.7c-0.2-0.2-0.5-0.2-0.7,0L26.9,32.6l-7.8-17.1c-0.1-0.1-0.2-0.3-0.4-0.3
		c-0.2,0-0.3,0-0.4,0.1l-5.4,5L3,10.4V2.5C3,2.2,2.8,2,2.5,2S2,2.2,2,2.5V40c0,0.3,0.2,0.5,0.5,0.5H40c0.3,0,0.5-0.2,0.5-0.5
		S40.3,39.5,40,39.5z"/>
</g>
</svg>
