<?xml version="1.0" encoding="utf-8"?>
<!-- Generator: Adobe Illustrator 18.0.0, SVG Export Plug-In . SVG Version: 6.00 Build 0)  -->
<!DOCTYPE svg PUBLIC "-//W3C//DTD SVG 1.1//EN" "http://www.w3.org/Graphics/SVG/1.1/DTD/svg11.dtd">
<svg version="1.1" id="Capa_1" xmlns="http://www.w3.org/2000/svg" xmlns:xlink="http://www.w3.org/1999/xlink" x="0px" y="0px"
	 viewBox="0 0 42.5 42.5" enable-background="new 0 0 42.5 42.5" xml:space="preserve">
<g id="XMLID_670_">
	<path fill="#C9CDCE" d="M40,40.5H2.5C2.2,40.5,2,40.3,2,40V2.5C2,2.2,2.2,2,2.5,2S3,2.2,3,2.5v37h37c0.3,0,0.5,0.2,0.5,0.5
		S40.3,40.5,40,40.5z"/>
	<path fill="#C9CDCE" d="M40,40.5H2.5C2.2,40.5,2,40.3,2,40V15.4c0-0.2,0.1-0.3,0.2-0.4c0.1-0.1,0.3-0.1,0.5,0l8.1,3.5l9.8-5
		l6.5-7.7c0.1-0.1,0.3-0.2,0.4-0.2c0.2,0,0.3,0.1,0.4,0.2l4.2,7.2l8.1,1.8c0.2,0.1,0.4,0.3,0.4,0.5V40C40.5,40.3,40.3,40.5,40,40.5z
		 M3,39.5h36.5V15.8L31.6,14c-0.1,0-0.3-0.1-0.3-0.2l-3.9-6.8l-6.1,7.2c0,0.1-0.1,0.1-0.2,0.1l-10.1,5.2c-0.1,0.1-0.3,0.1-0.4,0
		L3,16.2V39.5z"/>
	<path fill="#C9CDCE" d="M40,40.5H2.5C2.2,40.5,2,40.3,2,40V23.8c0-0.2,0.1-0.4,0.3-0.5l7.9-2.6c0,0,0.1,0,0.2,0h9.6l6.7-6.2
		c0.2-0.2,0.4-0.2,0.6,0l4.3,3l8.4,0.6c0.3,0,0.5,0.2,0.5,0.5V40C40.5,40.3,40.3,40.5,40,40.5z M3,39.5h36.5V19l-8.1-0.6
		c-0.1,0-0.2,0-0.2-0.1l-4-2.8l-6.5,6.1c-0.1,0.1-0.2,0.1-0.3,0.1h-9.7L3,24.2V39.5z"/>
	<path fill="#C9CDCE" d="M40,40.5H2.5C2.2,40.5,2,40.3,2,40v-8.8c0-0.2,0.1-0.3,0.2-0.4l8.3-4.9c0.2-0.1,0.3-0.1,0.5,0l8.8,5.1
		l6.8-9.5c0.1-0.1,0.3-0.2,0.5-0.2c0.2,0,0.3,0.1,0.4,0.3l4.3,9.1l7.8-9.5c0.1-0.2,0.4-0.2,0.6-0.2c0.2,0.1,0.3,0.3,0.3,0.5V40
		C40.5,40.3,40.3,40.5,40,40.5z M3,39.5h36.5V23l-7.4,9c-0.1,0.1-0.3,0.2-0.4,0.2c-0.2,0-0.3-0.1-0.4-0.3L27,22.9L20.5,32
		c-0.1,0.2-0.4,0.3-0.7,0.1l-9-5.2L3,31.5V39.5z"/>
</g>
</svg>
