<?xml version="1.0" encoding="utf-8"?>
<!-- Generator: Adobe Illustrator 18.0.0, SVG Export Plug-In . SVG Version: 6.00 Build 0)  -->
<!DOCTYPE svg PUBLIC "-//W3C//DTD SVG 1.1//EN" "http://www.w3.org/Graphics/SVG/1.1/DTD/svg11.dtd">
<svg version="1.1" id="Capa_1" xmlns="http://www.w3.org/2000/svg" xmlns:xlink="http://www.w3.org/1999/xlink" x="0px" y="0px"
	 viewBox="0 0 42.5 42.5" enable-background="new 0 0 42.5 42.5" xml:space="preserve">
<g>
	<path fill="#C9CDCE" d="M39.1,34.9c-1.1,0-2,0.9-2,2c0,0.9,0.6,1.7,1.5,1.9v0.7h-6.2v-9c0.8-0.2,1.5-1,1.5-1.9c0-1.1-0.9-2-2-2
		c-1.1,0-2,0.9-2,2c0,0.9,0.6,1.7,1.5,1.9v9h-7V22.3c0.8-0.2,1.5-1,1.5-1.9c0-1.1-0.9-2-2-2s-2,0.9-2,2c0,0.9,0.6,1.7,1.5,1.9v17.2
		h-6.2V14.1c0.8-0.2,1.5-1,1.5-1.9c0-1.1-0.9-2-2-2s-2,0.9-2,2c0,0.9,0.6,1.7,1.5,1.9v25.5H9.9V5.9c0.8-0.2,1.5-1,1.5-1.9
		c0-1.1-0.9-2-2-2s-2,0.9-2,2c0,0.9,0.6,1.7,1.5,1.9v33.6H2.5v-37C2.5,2.2,2.3,2,2,2S1.5,2.2,1.5,2.5V40c0,0.3,0.2,0.5,0.5,0.5h37.5
		c0.3,0,0.5-0.2,0.5-0.5c0-0.2-0.2-0.4-0.4-0.5v-0.8c0.8-0.2,1.5-1,1.5-1.9C41.1,35.8,40.2,34.9,39.1,34.9z M30.9,28.6
		c0-0.5,0.4-1,1-1c0.5,0,1,0.4,1,1s-0.4,1-1,1C31.3,29.6,30.9,29.2,30.9,28.6z M22.8,20.4c0-0.5,0.4-1,1-1s1,0.4,1,1s-0.4,1-1,1
		S22.8,20.9,22.8,20.4z M15.6,12.2c0-0.5,0.4-1,1-1s1,0.4,1,1s-0.4,1-1,1S15.6,12.7,15.6,12.2z M8.4,4c0-0.5,0.4-1,1-1s1,0.4,1,1
		s-0.4,1-1,1S8.4,4.5,8.4,4z M39.1,37.9c-0.5,0-1-0.4-1-1s0.4-1,1-1s1,0.4,1,1S39.6,37.9,39.1,37.9z"/>
</g>
</svg>
