<?xml version="1.0" encoding="utf-8"?>
<!-- Generator: Adobe Illustrator 18.0.0, SVG Export Plug-In . SVG Version: 6.00 Build 0)  -->
<!DOCTYPE svg PUBLIC "-//W3C//DTD SVG 1.1//EN" "http://www.w3.org/Graphics/SVG/1.1/DTD/svg11.dtd">
<svg version="1.1" id="Capa_1" xmlns="http://www.w3.org/2000/svg" xmlns:xlink="http://www.w3.org/1999/xlink" x="0px" y="0px"
	 viewBox="0 0 49.2 42.5" enable-background="new 0 0 49.2 42.5" xml:space="preserve">
<g>
	<path fill="#C9CDCE" d="M47.5,13.5H25.1v-1.9H40c0.3,0,0.5-0.2,0.5-0.5V5.6c0-0.3-0.2-0.5-0.5-0.5H25.1V2.5c0-0.3-0.2-0.5-0.5-0.5
		s-0.5,0.2-0.5,0.5v2.6H13c-0.3,0-0.5,0.2-0.5,0.5v5.4c0,0.3,0.2,0.5,0.5,0.5h11.1v1.9H1.7c-0.3,0-0.5,0.2-0.5,0.5v5.4
		c0,0.3,0.2,0.5,0.5,0.5h22.4v1.9H10.1c-0.3,0-0.5,0.2-0.5,0.5v5.4c0,0.3,0.2,0.5,0.5,0.5h13.9v1.9H6.3c-0.3,0-0.5,0.2-0.5,0.5v5.4
		c0,0.3,0.2,0.5,0.5,0.5h17.7V40c0,0.3,0.2,0.5,0.5,0.5s0.5-0.2,0.5-0.5v-3.4h8.3c0.3,0,0.5-0.2,0.5-0.5v-5.4c0-0.3-0.2-0.5-0.5-0.5
		h-8.3v-1.9h16.6c0.3,0,0.5-0.2,0.5-0.5v-5.4c0-0.3-0.2-0.5-0.5-0.5H25.1v-1.9h22.4c0.3,0,0.5-0.2,0.5-0.5V14
		C48,13.7,47.8,13.5,47.5,13.5z M39.5,6.1v4.4H25.1V6.1H39.5z M13.5,10.6V6.1h10.6v4.4H13.5z M6.8,35.6v-4.4h17.2v4.4H6.8z
		 M32.8,31.2v4.4h-7.8v-4.4H32.8z M10.6,27.3v-4.4h13.4v4.4H10.6z M41.1,22.8v4.4H25.1v-4.4H41.1z M2.2,18.9v-4.4h21.9v4.4H2.2z
		 M47,18.9H25.1v-4.4H47V18.9z"/>
</g>
</svg>
