<?xml version="1.0" encoding="utf-8"?>
<!-- Generator: Adobe Illustrator 18.0.0, SVG Export Plug-In . SVG Version: 6.00 Build 0)  -->
<!DOCTYPE svg PUBLIC "-//W3C//DTD SVG 1.1//EN" "http://www.w3.org/Graphics/SVG/1.1/DTD/svg11.dtd">
<svg version="1.1" id="Capa_1" xmlns="http://www.w3.org/2000/svg" xmlns:xlink="http://www.w3.org/1999/xlink" x="0px" y="0px"
	 viewBox="0 0 42.5 42.5" enable-background="new 0 0 42.5 42.5" xml:space="preserve">
<g>
	<path fill="#C9CDCE" d="M349.8,13.5h-22.4v-1.9h14.9c0.3,0,0.5-0.2,0.5-0.5V5.6c0-0.3-0.2-0.5-0.5-0.5h-14.9V2.5
		c0-0.3-0.2-0.5-0.5-0.5s-0.5,0.2-0.5,0.5v2.6h-11.1c-0.3,0-0.5,0.2-0.5,0.5v5.4c0,0.3,0.2,0.5,0.5,0.5h11.1v1.9H304
		c-0.3,0-0.5,0.2-0.5,0.5v5.4c0,0.3,0.2,0.5,0.5,0.5h22.4v1.9h-13.9c-0.3,0-0.5,0.2-0.5,0.5v5.4c0,0.3,0.2,0.5,0.5,0.5h13.9v1.9
		h-17.7c-0.3,0-0.5,0.2-0.5,0.5v5.4c0,0.3,0.2,0.5,0.5,0.5h17.7V40c0,0.3,0.2,0.5,0.5,0.5s0.5-0.2,0.5-0.5v-3.4h8.3
		c0.3,0,0.5-0.2,0.5-0.5v-5.4c0-0.3-0.2-0.5-0.5-0.5h-8.3v-1.9h16.6c0.3,0,0.5-0.2,0.5-0.5v-5.4c0-0.3-0.2-0.5-0.5-0.5h-16.6v-1.9
		h22.4c0.3,0,0.5-0.2,0.5-0.5V14C350.3,13.7,350.1,13.5,349.8,13.5z M341.8,6.1v4.4h-14.4V6.1H341.8z M315.8,10.6V6.1h10.6v4.4
		H315.8z M309.1,35.6v-4.4h17.2v4.4H309.1z M335.1,31.2v4.4h-7.8v-4.4H335.1z M312.9,27.3v-4.4h13.4v4.4H312.9z M343.4,22.8v4.4
		h-16.1v-4.4H343.4z M304.5,18.9v-4.4h21.9v4.4H304.5z M349.3,18.9h-21.9v-4.4h21.9V18.9z"/>
</g>
<g>
	<path fill="#C9CDCE" d="M289.8,23.8l-2.2,0c-0.6,0-1.2,0-1.8,0c-0.5,0-0.9,0.2-1.2,0.6c-0.1,0.2-0.3,0.4-0.4,0.6
		c-0.6,0.8-1.1,1.7-1.4,2.7c-0.3,1.3-1.3,2.1-2.9,2.7c-1,0.4-2.1,0.5-3.6,0.5c0,0,0,0,0,0c-1.9,0-3.2-0.8-4.2-2.4
		c-0.7-1.1-1.1-2.5-1.3-4.2c-0.2-1.7-0.2-3.4-0.1-5c0.1-0.7-0.1-1.4-0.6-2c-0.5-0.7-1-1.4-1.5-2.1l-1.1-1.6
		c-0.5-0.7-1.1-1.5-1.6-2.2c-0.5-0.7-1.1-0.9-1.8-0.9c-0.5,0-0.9,0-1.4,0c-0.2,0-0.4,0-0.6,0l-0.1,0c-0.2,0-0.3,0-0.4-0.2
		c-0.6-0.7-1.1-1.4-1.7-2.1l-1-1.2c-0.3-0.4-0.8-0.6-1.3-0.6l-1.9,0c-0.5,0-1,0-1.5,0c-0.7,0-1.2,0.5-1.2,1.3c0,0.1,0,0.2,0,0.3
		c-0.3,0-0.6,0-1,0l-1.2,0c-0.4,0-0.6-0.1-0.9-0.3c-1-0.8-2.1-1.7-3.2-2.5c-0.4-0.3-0.9-0.4-1.3-0.5c-1.3,0-2.5,0-3.8,0l-0.3,0
		c-0.2,0-0.4,0.1-0.5,0.1c0,0-0.1,0-0.1,0c-0.2,0.1-0.3,0.3-0.3,0.5v0.4c0,0.1,0,0.1,0,0.2l0.1,0.2c0,0.1,0.1,0.2,0.1,0.2l1.6,5.8
		c0.2,0.8,0.4,1.6,0.6,2.4c0,0.1,0,0.1,0,0.1c0,0-0.1,0-0.1,0l-0.3,0l-0.5,0l-0.5,0c-0.1,0-0.2,0-0.4,0.1c-0.2,0-0.3,0.2-0.4,0.3
		c-0.1,0.2,0,0.4,0.1,0.5l1.3,1.3c0.2,0.2,0.4,0.4,0.7,0.6c0.5,0.4,0.9,0.9,1.3,1.3c0.7,1,1.3,2,1.9,3c0.2,0.4,0.5,0.8,0.7,1.2
		c0.4,0.6,0.7,1.2,1.1,1.8c0.4,0.7,0.8,1.3,1.2,2c0.1,0.2,0.6,0.9,1.5,0.4l0.6-0.3c0.8-0.4,0.7-1,0.6-1.4c-0.1-0.3-0.2-0.5-0.3-0.7
		L246.2,13c-0.2-0.5-0.4-1-0.6-1.5c0,0,0,0,0,0c0,0,0.1,0,0.1,0c0.4,0,0.6,0,1,0.5c0.5,0.7,0.9,1.4,1.4,2.1l2.3,3.4
		c1.2,1.8,2.4,3.6,3.6,5.5c0.8,1.1,1.2,2.2,1.5,3.2c0.2,0.9,0.5,1.7,0.7,2.5c0.1,0.4,0.3,0.8,0.4,1.3c0.2,0.6,0.5,1,1,1.3
		c2.5,1.8,5.1,3.6,7.6,5.3c0.5,0.3,1,0.4,1.5,0.3l2.2-0.5c1.7-0.4,3.4-0.7,5.1-1.1c0.4-0.1,0.7-0.1,1,0.1c0.8,0.5,1.5,0.9,2.3,1.4
		l1.1,0.7c0.2,0.1,0.4,0.2,0.7,0.2c0.4,0,0.6-0.2,0.9-0.4l0.1-0.1c0.1-0.1,0.3-0.2,0.4-0.4c0.4-0.4,0.8-0.6,1.4-0.6
		c0.5,0,1.1,0,1.6,0l0.3,0c0.1,0,0.6,0,0.8-0.4c0.2-0.3,0.1-0.7,0-0.9c-0.1-0.2-0.2-0.4-0.3-0.6l-0.1-0.2c-0.1-0.2-0.1-0.3-0.1-0.3
		c0,0,0-0.1,0.2-0.2l0.4-0.4c1.4-1.4,2.7-2.7,4.1-4.1c0.6-0.6,1.4-1.3,1.5-2.5c0.1-0.4,0.2-0.8,0.3-1.3c0.1-0.2,0.1-0.4,0.2-0.6
		c0.1-0.3,0.1-0.7-0.1-1C290.4,23.8,290,23.8,289.8,23.8z M289.8,24.8c0,0.2-0.1,0.4-0.1,0.6c-0.1,0.4-0.2,0.9-0.3,1.4
		c-0.1,0.8-0.7,1.3-1.3,1.9c-1.4,1.4-2.7,2.7-4.1,4.1l-0.4,0.4c-0.5,0.5-0.6,0.9-0.3,1.6l0.1,0.2c0,0.1,0.1,0.2,0.2,0.3l-0.1,0
		c-0.5,0-1,0-1.5,0c-0.9-0.1-1.7,0.2-2.3,0.9c-0.1,0.1-0.2,0.2-0.3,0.3l-0.2,0.2c-0.1,0.1-0.2,0.1-0.2,0.1c0,0-0.1,0-0.2-0.1
		l-1.1-0.7c-0.8-0.4-1.5-0.9-2.3-1.4c-0.4-0.2-0.7-0.3-1.1-0.3c-0.2,0-0.4,0-0.6,0.1c-1.7,0.4-3.4,0.7-5.1,1.1l-2.2,0.5
		c-0.3,0.1-0.5,0-0.7-0.2c-2.5-1.8-5.1-3.6-7.6-5.3c-0.3-0.2-0.5-0.5-0.6-0.8c-0.1-0.4-0.2-0.9-0.4-1.3c-0.2-0.8-0.5-1.6-0.7-2.5
		c-0.3-1.2-0.8-2.3-1.6-3.6c-1.2-1.8-2.4-3.6-3.6-5.4l-2.3-3.4c-0.5-0.7-0.9-1.4-1.4-2.1c-0.5-0.7-1.1-1.1-1.9-1
		c-0.2,0-0.6,0.1-0.9,0.5c-0.2,0.3-0.2,0.6,0,0.9c0.2,0.5,0.4,1,0.6,1.5l4.8,11.8c0.1,0.2,0.2,0.5,0.3,0.7c0,0.1,0,0.1,0,0.1
		c0,0,0,0-0.1,0.1l-0.6,0.3c-0.1,0-0.1,0.1-0.1,0.1c0,0,0-0.1-0.1-0.1c-0.4-0.6-0.8-1.3-1.2-2c-0.4-0.6-0.7-1.2-1.1-1.8
		c-0.2-0.4-0.5-0.8-0.7-1.2c-0.6-1-1.2-2.1-1.9-3.1c-0.4-0.6-0.9-1-1.4-1.5c-0.2-0.2-0.4-0.4-0.6-0.6l-0.5-0.5l0.2,0l0.3,0
		c0.2,0,0.7,0,0.9-0.4c0.2-0.2,0.2-0.6,0.1-1c-0.2-0.8-0.4-1.6-0.6-2.4L241.3,6c0-0.1-0.1-0.2-0.1-0.4l0.3,0c1.2,0,2.5,0,3.7,0
		c0.3,0,0.6,0.1,0.8,0.3c1.1,0.8,2.2,1.7,3.2,2.5c0.5,0.4,1,0.5,1.6,0.5l1.2,0c0.4,0,0.7,0,1.1,0c0.3,0,0.5-0.1,0.7-0.3
		c0.2-0.2,0.2-0.4,0.2-0.7c0-0.1,0-0.2,0-0.4c0-0.3,0.1-0.3,0.2-0.3c0.5,0,1,0,1.5,0l1.9,0c0.1,0,0.3,0,0.5,0.3l1,1.2
		c0.6,0.7,1.1,1.4,1.7,2.1c0.3,0.4,0.7,0.6,1.2,0.6l0.1,0c0.2,0,0.4,0,0.6,0c0.5,0,0.9,0,1.6,0c0.3,0,0.6,0.1,0.8,0.5
		c0.5,0.8,1.1,1.5,1.6,2.2l1.1,1.6c0.5,0.7,1,1.4,1.5,2.1c0.3,0.4,0.4,0.8,0.4,1.3c-0.2,1.7-0.1,3.4,0.1,5.2
		c0.2,1.9,0.7,3.3,1.5,4.6c1.1,1.9,2.8,2.9,5.1,2.9c1.6,0,2.8-0.2,3.9-0.6c1.9-0.7,3.1-1.8,3.5-3.4c0.2-0.9,0.7-1.6,1.3-2.4
		c0.1-0.2,0.3-0.4,0.4-0.6c0-0.1,0.1-0.1,0.4-0.1c0.6,0,1.2,0,1.7,0l1.2,0L289.8,24.8C289.8,24.8,289.8,24.8,289.8,24.8
		C289.8,24.8,289.8,24.8,289.8,24.8z"/>
</g>
<g>
	<path fill="#C9CDCE" d="M21.5,2c-1,0-2.1,0.1-3.1,0.3c-0.1,0-0.2,0.1-0.3,0.2c-0.1,0.1-0.1,0.2-0.1,0.4l0.3,2
		c-1.8,0.3-3.5,1-5.1,1.9C13,6.7,12.9,6.8,12.9,7c0,0.1,0,0.3,0,0.4L13.9,9C9.7,11.6,7.1,16,7,20.9H2.5c-0.3,0-0.5,0.2-0.5,0.5
		C2,31,8.9,39,18.3,40.6c0,0,0.1,0,0.1,0c0.2,0,0.5-0.2,0.5-0.4l0.3-2c0.8,0.1,1.5,0.2,2.2,0.2c5.1,0,9.8-2.2,13.1-6.2
		c0.1-0.1,0.1-0.2,0.1-0.4c0-0.1-0.1-0.3-0.2-0.3L33,30.2c1.9-2.5,3-5.6,3-8.8c0-0.8-0.1-1.6-0.2-2.3l4.4-0.9
		c0.3-0.1,0.4-0.3,0.4-0.6C38.7,8.5,30.7,2,21.5,2z M18.4,5.8l2.1,12.9L15,9l0,0l-0.9-1.7C15.4,6.6,16.9,6.1,18.4,5.8z M14.4,9.9
		l6.2,11H8C8.1,16.4,10.5,12.3,14.4,9.9z M3,21.9h4.4h13.4L18,39.5C9.5,37.9,3.3,30.6,3,21.9z M21.5,37.3c-0.6,0-1.3,0-2.1-0.2
		l2.3-14.2l0.1-0.6l11.6,9.6C30.4,35.3,26.1,37.3,21.5,37.3z M32.2,29.6l-3.8-3.1l-5.8-4.8l12.2-2.4c0.1,0.7,0.2,1.4,0.2,2.1
		C35,24.4,34,27.2,32.2,29.6z M21.9,20.8L19,3.1C19.8,3,20.6,3,21.5,3c8.6,0,16.1,6,18,14.3L21.9,20.8z"/>
</g>
</svg>
