<?xml version="1.0" encoding="utf-8"?>
<!-- Generator: Adobe Illustrator 18.0.0, SVG Export Plug-In . SVG Version: 6.00 Build 0)  -->
<!DOCTYPE svg PUBLIC "-//W3C//DTD SVG 1.1//EN" "http://www.w3.org/Graphics/SVG/1.1/DTD/svg11.dtd">
<svg version="1.1" id="Capa_1" xmlns="http://www.w3.org/2000/svg" xmlns:xlink="http://www.w3.org/1999/xlink" x="0px" y="0px"
	 viewBox="0 0 42.5 42.5" enable-background="new 0 0 42.5 42.5" xml:space="preserve">
<g>
	<path fill="#C9CDCE" d="M40,39.5H3v-37C3,2.2,2.8,2,2.5,2S2,2.2,2,2.5V40c0,0.3,0.2,0.5,0.5,0.5H40c0.3,0,0.5-0.2,0.5-0.5
		S40.3,39.5,40,39.5z"/>
	<path fill="#C9CDCE" d="M9.7,33.8C9.7,33.8,9.8,33.8,9.7,33.8c1.6,0,2.9-1.3,2.9-2.9c0-1.6-1.3-2.9-2.9-2.9c-1.6,0-2.9,1.3-2.9,2.9
		c0,0.8,0.3,1.5,0.8,2.1C8.2,33.5,9,33.8,9.7,33.8z M9.8,28.9c1.1,0,1.9,0.9,1.9,1.9c0,1.1-0.9,1.9-1.9,1.9v0.5l0-0.5
		c-0.5,0-1-0.2-1.4-0.6c-0.4-0.4-0.6-0.9-0.6-1.4C7.8,29.8,8.7,28.9,9.8,28.9z"/>
	<path fill="#C9CDCE" d="M26.3,27.2c0,1.6,1.3,2.9,2.9,2.9c0,0,0,0,0,0c1.6,0,2.9-1.3,2.9-2.9c0-0.8-0.3-1.5-0.9-2.1
		s-1.3-0.9-2.1-0.9C27.6,24.3,26.3,25.6,26.3,27.2z M29.3,25.3c0.5,0,1,0.2,1.4,0.6c0.4,0.4,0.6,0.8,0.6,1.4c0,1.1-0.9,1.9-1.9,1.9
		v0.5l0-0.5c-1.1,0-1.9-0.9-1.9-1.9C27.3,26.2,28.2,25.3,29.3,25.3z"/>
	<path fill="#C9CDCE" d="M34.8,30.9c-1.6,0-2.9,1.3-2.9,2.9c0,1.6,1.3,2.9,2.9,2.9c0,0,0,0,0,0c1.6,0,2.9-1.3,2.9-2.9
		C37.7,32.2,36.4,30.9,34.8,30.9z M34.8,35.8v0.5V35.8c-1.1,0-1.9-0.9-1.9-1.9c0-1.1,0.9-1.9,1.9-1.9c1.1,0,1.9,0.9,1.9,1.9
		C36.7,34.9,35.9,35.8,34.8,35.8z"/>
	<path fill="#C9CDCE" d="M10.6,17.4c0,0.8,0.3,1.5,0.8,2.1c0.5,0.6,1.3,0.9,2.1,0.9c0,0,0,0,0,0c1.6,0,2.9-1.3,2.9-2.9
		c0-1.6-1.3-2.9-2.9-2.9C11.9,14.5,10.6,15.8,10.6,17.4z M13.6,15.5c1.1,0,1.9,0.9,1.9,1.9c0,1.1-0.9,1.9-1.9,1.9v0.5l0-0.5
		c-0.5,0-1-0.2-1.4-0.6c-0.4-0.4-0.6-0.9-0.6-1.4C11.6,16.4,12.5,15.5,13.6,15.5z"/>
	<path fill="#C9CDCE" d="M10,10.7C10,10.7,10.1,10.7,10,10.7c1.6,0,3-1.3,3-2.9c0-1.6-1.3-3-2.9-3c-1.6,0-2.9,1.3-2.9,2.9
		c0,0.8,0.3,1.5,0.8,2.1C8.5,10.3,9.2,10.6,10,10.7z M10.1,5.8c1.1,0,1.9,0.9,1.9,2c0,1-0.9,1.9-1.9,1.9v0.5l0-0.5
		c-0.5,0-1-0.2-1.4-0.6C8.3,8.7,8.1,8.2,8.1,7.7C8.1,6.6,9,5.8,10.1,5.8z"/>
	<path fill="#C9CDCE" d="M23.7,22.8C23.7,22.8,23.7,22.8,23.7,22.8c1.6,0,2.9-1.3,2.9-3c0-1.6-1.3-2.9-3-2.9c-0.8,0-1.5,0.3-2.1,0.9
		c-0.5,0.6-0.8,1.3-0.8,2.1C20.8,21.5,22.1,22.8,23.7,22.8z M22.3,18.5c0.4-0.4,0.9-0.6,1.4-0.6c1,0,1.9,0.9,1.9,1.9
		c0,1.1-0.9,1.9-1.9,1.9l0,0.5v-0.5c-1.1,0-1.9-0.9-1.9-1.9C21.8,19.4,22,18.9,22.3,18.5z"/>
	<path fill="#C9CDCE" d="M20,35.9C20,35.9,20,35.9,20,35.9c1.6,0,2.9-1.3,2.9-2.9c0-1.6-1.3-2.9-2.9-2.9c-0.8,0-1.5,0.3-2.1,0.9
		C17.3,31.5,17,32.2,17,33C17,34.6,18.3,35.9,20,35.9z M18.6,31.6C19,31.2,19.4,31,20,31c1.1,0,1.9,0.9,1.9,1.9
		c0,1.1-0.9,1.9-1.9,1.9l0,0.5v-0.5C18.9,34.9,18,34,18,33C18,32.5,18.2,32,18.6,31.6z"/>
	<path fill="#C9CDCE" d="M35.4,16.4C35.4,16.4,35.4,16.4,35.4,16.4c0.8,0,1.6-0.3,2.1-0.9c0.5-0.6,0.8-1.3,0.8-2.1
		c0-1.6-1.3-2.9-3-2.9c-0.8,0-1.5,0.3-2.1,0.9c-0.5,0.6-0.8,1.3-0.8,2.1C32.5,15.1,33.8,16.4,35.4,16.4z M34,12.1
		c0.4-0.4,0.9-0.6,1.4-0.6c1,0,1.9,0.8,1.9,1.9c0,0.5-0.2,1-0.5,1.4c-0.4,0.4-0.8,0.6-1.3,0.6l0,0.5v-0.5c-1.1,0-1.9-0.8-1.9-1.9
		C33.4,13,33.6,12.5,34,12.1z"/>
	<path fill="#C9CDCE" d="M25.7,9.9C25.7,9.9,25.7,9.9,25.7,9.9c1.6,0,2.9-1.3,2.9-2.9c0-1.6-1.3-2.9-2.9-2.9c-1.6,0-2.9,1.3-2.9,2.9
		c0,0.8,0.3,1.5,0.8,2.1C24.2,9.6,24.9,9.9,25.7,9.9z M25.7,5.1c1.1,0,1.9,0.9,1.9,1.9c0,1.1-0.9,1.9-1.9,1.9v0.5l0-0.5
		c-0.5,0-1-0.2-1.4-0.6C24,8,23.8,7.5,23.8,7C23.8,5.9,24.6,5.1,25.7,5.1z"/>
</g>
</svg>
