<?xml version="1.0" encoding="utf-8"?>
<!-- Generator: Adobe Illustrator 18.0.0, SVG Export Plug-In . SVG Version: 6.00 Build 0)  -->
<!DOCTYPE svg PUBLIC "-//W3C//DTD SVG 1.1//EN" "http://www.w3.org/Graphics/SVG/1.1/DTD/svg11.dtd">
<svg version="1.1" id="Capa_1" xmlns="http://www.w3.org/2000/svg" xmlns:xlink="http://www.w3.org/1999/xlink" x="0px" y="0px"
	 viewBox="0 0 53.1 42.5" enable-background="new 0 0 53.1 42.5" xml:space="preserve">
<g>
	<path fill="#C9CDCE" d="M355.1,13.5h-22.4v-1.9h14.9c0.3,0,0.5-0.2,0.5-0.5V5.6c0-0.3-0.2-0.5-0.5-0.5h-14.9V2.5
		c0-0.3-0.2-0.5-0.5-0.5s-0.5,0.2-0.5,0.5v2.6h-11.1c-0.3,0-0.5,0.2-0.5,0.5v5.4c0,0.3,0.2,0.5,0.5,0.5h11.1v1.9h-22.4
		c-0.3,0-0.5,0.2-0.5,0.5v5.4c0,0.3,0.2,0.5,0.5,0.5h22.4v1.9h-13.9c-0.3,0-0.5,0.2-0.5,0.5v5.4c0,0.3,0.2,0.5,0.5,0.5h13.9v1.9
		h-17.7c-0.3,0-0.5,0.2-0.5,0.5v5.4c0,0.3,0.2,0.5,0.5,0.5h17.7V40c0,0.3,0.2,0.5,0.5,0.5s0.5-0.2,0.5-0.5v-3.4h8.3
		c0.3,0,0.5-0.2,0.5-0.5v-5.4c0-0.3-0.2-0.5-0.5-0.5h-8.3v-1.9h16.6c0.3,0,0.5-0.2,0.5-0.5v-5.4c0-0.3-0.2-0.5-0.5-0.5h-16.6v-1.9
		h22.4c0.3,0,0.5-0.2,0.5-0.5V14C355.6,13.7,355.3,13.5,355.1,13.5z M347.1,6.1v4.4h-14.4V6.1H347.1z M321.1,10.6V6.1h10.6v4.4
		H321.1z M314.4,35.6v-4.4h17.2v4.4H314.4z M340.4,31.2v4.4h-7.8v-4.4H340.4z M318.2,27.3v-4.4h13.4v4.4H318.2z M348.7,22.8v4.4
		h-16.1v-4.4H348.7z M309.8,18.9v-4.4h21.9v4.4H309.8z M354.6,18.9h-21.9v-4.4h21.9V18.9z"/>
</g>
<g>
	<path fill="#C9CDCE" d="M50.8,23.8l-2.2,0c-0.6,0-1.2,0-1.8,0c-0.5,0-0.9,0.2-1.2,0.6c-0.1,0.2-0.3,0.4-0.4,0.6
		c-0.6,0.8-1.1,1.7-1.4,2.7c-0.3,1.3-1.3,2.1-2.9,2.7c-1,0.4-2.1,0.5-3.6,0.5c0,0,0,0,0,0c-1.9,0-3.2-0.8-4.2-2.4
		c-0.7-1.1-1.1-2.5-1.3-4.2c-0.2-1.7-0.2-3.4-0.1-5c0.1-0.7-0.1-1.4-0.6-2c-0.5-0.7-1-1.4-1.5-2.1l-1.1-1.6
		c-0.5-0.7-1.1-1.5-1.6-2.2c-0.5-0.7-1.1-0.9-1.8-0.9c-0.5,0-0.9,0-1.4,0c-0.2,0-0.4,0-0.6,0l-0.1,0c-0.2,0-0.3,0-0.4-0.2
		c-0.6-0.7-1.1-1.4-1.7-2.1l-1-1.2c-0.3-0.4-0.8-0.6-1.3-0.6l-1.9,0c-0.5,0-1,0-1.5,0c-0.7,0-1.2,0.5-1.2,1.3c0,0.1,0,0.2,0,0.3
		c-0.3,0-0.6,0-1,0l-1.2,0c-0.4,0-0.6-0.1-0.9-0.3C9.9,6.9,8.8,6,7.7,5.1C7.3,4.9,6.8,4.7,6.3,4.7c-1.3,0-2.5,0-3.8,0l-0.3,0
		C2,4.7,1.8,4.7,1.7,4.8c0,0-0.1,0-0.1,0C1.4,4.9,1.2,5.1,1.2,5.3v0.4c0,0.1,0,0.1,0,0.2l0.1,0.2c0,0.1,0.1,0.2,0.1,0.2L3,12.1
		c0.2,0.8,0.4,1.6,0.6,2.4c0,0.1,0,0.1,0,0.1c0,0-0.1,0-0.1,0l-0.3,0l-0.5,0l-0.5,0c-0.1,0-0.2,0-0.4,0.1c-0.2,0-0.3,0.2-0.4,0.3
		c-0.1,0.2,0,0.4,0.1,0.5l1.3,1.3c0.2,0.2,0.4,0.4,0.7,0.6C4,18,4.5,18.4,4.8,18.8c0.7,1,1.3,2,1.9,3c0.2,0.4,0.5,0.8,0.7,1.2
		c0.4,0.6,0.7,1.2,1.1,1.8c0.4,0.7,0.8,1.3,1.2,2c0.1,0.2,0.6,0.9,1.5,0.4l0.6-0.3c0.8-0.4,0.7-1,0.6-1.4c-0.1-0.3-0.2-0.5-0.3-0.7
		L7.3,13c-0.2-0.5-0.4-1-0.6-1.5c0,0,0,0,0,0c0,0,0.1,0,0.1,0c0.4,0,0.6,0,1,0.5c0.5,0.7,0.9,1.4,1.4,2.1l2.3,3.4
		c1.2,1.8,2.4,3.6,3.6,5.5c0.8,1.1,1.2,2.2,1.5,3.2c0.2,0.9,0.5,1.7,0.7,2.5c0.1,0.4,0.3,0.8,0.4,1.3c0.2,0.6,0.5,1,1,1.3
		c2.5,1.8,5.1,3.6,7.6,5.3c0.5,0.3,1,0.4,1.5,0.3l2.2-0.5c1.7-0.4,3.4-0.7,5.1-1.1c0.4-0.1,0.7-0.1,1,0.1c0.8,0.5,1.5,0.9,2.3,1.4
		l1.1,0.7c0.2,0.1,0.4,0.2,0.7,0.2c0.4,0,0.6-0.2,0.9-0.4l0.1-0.1c0.1-0.1,0.3-0.2,0.4-0.4c0.4-0.4,0.8-0.6,1.4-0.6
		c0.5,0,1.1,0,1.6,0l0.3,0c0.1,0,0.6,0,0.8-0.4c0.2-0.3,0.1-0.7,0-0.9c-0.1-0.2-0.2-0.4-0.3-0.6l-0.1-0.2c-0.1-0.2-0.1-0.3-0.1-0.3
		c0,0,0-0.1,0.2-0.2l0.4-0.4c1.4-1.4,2.7-2.7,4.1-4.1c0.6-0.6,1.4-1.3,1.5-2.5c0.1-0.4,0.2-0.8,0.3-1.3c0.1-0.2,0.1-0.4,0.2-0.6
		c0.1-0.3,0.1-0.7-0.1-1C51.5,23.8,51.1,23.8,50.8,23.8z M50.8,24.8c0,0.2-0.1,0.4-0.1,0.6c-0.1,0.4-0.2,0.9-0.3,1.4
		c-0.1,0.8-0.7,1.3-1.3,1.9c-1.4,1.4-2.7,2.7-4.1,4.1l-0.4,0.4c-0.5,0.5-0.6,0.9-0.3,1.6l0.1,0.2c0,0.1,0.1,0.2,0.2,0.3l-0.1,0
		c-0.5,0-1,0-1.5,0c-0.9-0.1-1.7,0.2-2.3,0.9c-0.1,0.1-0.2,0.2-0.3,0.3l-0.2,0.2c-0.1,0.1-0.2,0.1-0.2,0.1c0,0-0.1,0-0.2-0.1
		l-1.1-0.7c-0.8-0.4-1.5-0.9-2.3-1.4c-0.4-0.2-0.7-0.3-1.1-0.3c-0.2,0-0.4,0-0.6,0.1c-1.7,0.4-3.4,0.7-5.1,1.1L27.5,36
		c-0.3,0.1-0.5,0-0.7-0.2c-2.5-1.8-5.1-3.6-7.6-5.3c-0.3-0.2-0.5-0.5-0.6-0.8c-0.1-0.4-0.2-0.9-0.4-1.3c-0.2-0.8-0.5-1.6-0.7-2.5
		c-0.3-1.2-0.8-2.3-1.6-3.6c-1.2-1.8-2.4-3.6-3.6-5.4L10,13.6c-0.5-0.7-0.9-1.4-1.4-2.1c-0.5-0.7-1.1-1.1-1.9-1
		c-0.2,0-0.6,0.1-0.9,0.5c-0.2,0.3-0.2,0.6,0,0.9c0.2,0.5,0.4,1,0.6,1.5l4.8,11.8c0.1,0.2,0.2,0.5,0.3,0.7c0,0.1,0,0.1,0,0.1
		c0,0,0,0-0.1,0.1l-0.6,0.3c-0.1,0-0.1,0.1-0.1,0.1c0,0,0-0.1-0.1-0.1c-0.4-0.6-0.8-1.3-1.2-2c-0.4-0.6-0.7-1.2-1.1-1.8
		c-0.2-0.4-0.5-0.8-0.7-1.2c-0.6-1-1.2-2.1-1.9-3.1c-0.4-0.6-0.9-1-1.4-1.5c-0.2-0.2-0.4-0.4-0.6-0.6l-0.5-0.5l0.2,0l0.3,0
		c0.2,0,0.7,0,0.9-0.4c0.2-0.2,0.2-0.6,0.1-1c-0.2-0.8-0.4-1.6-0.6-2.4L2.4,6c0-0.1-0.1-0.2-0.1-0.4l0.3,0c1.2,0,2.5,0,3.7,0
		c0.3,0,0.6,0.1,0.8,0.3c1.1,0.8,2.2,1.7,3.2,2.5c0.5,0.4,1,0.5,1.6,0.5L13,9c0.4,0,0.7,0,1.1,0c0.3,0,0.5-0.1,0.7-0.3
		C15,8.6,15,8.3,15,8c0-0.1,0-0.2,0-0.4c0-0.3,0.1-0.3,0.2-0.3c0.5,0,1,0,1.5,0l1.9,0c0.1,0,0.3,0,0.5,0.3l1,1.2
		c0.6,0.7,1.1,1.4,1.7,2.1c0.3,0.4,0.7,0.6,1.2,0.6l0.1,0c0.2,0,0.4,0,0.6,0c0.5,0,0.9,0,1.6,0c0.3,0,0.6,0.1,0.8,0.5
		c0.5,0.8,1.1,1.5,1.6,2.2l1.1,1.6c0.5,0.7,1,1.4,1.5,2.1c0.3,0.4,0.4,0.8,0.4,1.3c-0.2,1.7-0.1,3.4,0.1,5.2
		c0.2,1.9,0.7,3.3,1.5,4.6c1.1,1.9,2.8,2.9,5.1,2.9c1.6,0,2.8-0.2,3.9-0.6c1.9-0.7,3.1-1.8,3.5-3.4c0.2-0.9,0.7-1.6,1.3-2.4
		c0.1-0.2,0.3-0.4,0.4-0.6c0-0.1,0.1-0.1,0.4-0.1c0.6,0,1.2,0,1.7,0l1.2,0L50.8,24.8C50.8,24.8,50.8,24.8,50.8,24.8
		C50.8,24.8,50.8,24.8,50.8,24.8z"/>
</g>
</svg>
