<?xml version="1.0" encoding="utf-8"?>
<!-- Generator: Adobe Illustrator 18.0.0, SVG Export Plug-In . SVG Version: 6.00 Build 0)  -->
<!DOCTYPE svg PUBLIC "-//W3C//DTD SVG 1.1//EN" "http://www.w3.org/Graphics/SVG/1.1/DTD/svg11.dtd">
<svg version="1.1" id="Capa_1" xmlns="http://www.w3.org/2000/svg" xmlns:xlink="http://www.w3.org/1999/xlink" x="0px" y="0px"
	 viewBox="0 0 42.5 42.5" enable-background="new 0 0 42.5 42.5" xml:space="preserve">
<g>
	<path fill="#C9CDCE" d="M349.8,13.5h-22.4v-1.9h14.9c0.3,0,0.5-0.2,0.5-0.5V5.6c0-0.3-0.2-0.5-0.5-0.5h-14.9V2.5
		c0-0.3-0.2-0.5-0.5-0.5s-0.5,0.2-0.5,0.5v2.6h-11.1c-0.3,0-0.5,0.2-0.5,0.5v5.4c0,0.3,0.2,0.5,0.5,0.5h11.1v1.9H304
		c-0.3,0-0.5,0.2-0.5,0.5v5.4c0,0.3,0.2,0.5,0.5,0.5h22.4v1.9h-13.9c-0.3,0-0.5,0.2-0.5,0.5v5.4c0,0.3,0.2,0.5,0.5,0.5h13.9v1.9
		h-17.7c-0.3,0-0.5,0.2-0.5,0.5v5.4c0,0.3,0.2,0.5,0.5,0.5h17.7V40c0,0.3,0.2,0.5,0.5,0.5s0.5-0.2,0.5-0.5v-3.4h8.3
		c0.3,0,0.5-0.2,0.5-0.5v-5.4c0-0.3-0.2-0.5-0.5-0.5h-8.3v-1.9h16.6c0.3,0,0.5-0.2,0.5-0.5v-5.4c0-0.3-0.2-0.5-0.5-0.5h-16.6v-1.9
		h22.4c0.3,0,0.5-0.2,0.5-0.5V14C350.3,13.7,350.1,13.5,349.8,13.5z M341.8,6.1v4.4h-14.4V6.1H341.8z M315.8,10.6V6.1h10.6v4.4
		H315.8z M309.1,35.6v-4.4h17.2v4.4H309.1z M335.1,31.2v4.4h-7.8v-4.4H335.1z M312.9,27.3v-4.4h13.4v4.4H312.9z M343.4,22.8v4.4
		h-16.1v-4.4H343.4z M304.5,18.9v-4.4h21.9v4.4H304.5z M349.3,18.9h-21.9v-4.4h21.9V18.9z"/>
</g>
<g>
	<path fill="#C9CDCE" d="M289.8,23.8l-2.2,0c-0.6,0-1.2,0-1.8,0c-0.5,0-0.9,0.2-1.2,0.6c-0.1,0.2-0.3,0.4-0.4,0.6
		c-0.6,0.8-1.1,1.7-1.4,2.7c-0.3,1.3-1.3,2.1-2.9,2.7c-1,0.4-2.1,0.5-3.6,0.5c0,0,0,0,0,0c-1.9,0-3.2-0.8-4.2-2.4
		c-0.7-1.1-1.1-2.5-1.3-4.2c-0.2-1.7-0.2-3.4-0.1-5c0.1-0.7-0.1-1.4-0.6-2c-0.5-0.7-1-1.4-1.5-2.1l-1.1-1.6
		c-0.5-0.7-1.1-1.5-1.6-2.2c-0.5-0.7-1.1-0.9-1.8-0.9c-0.5,0-0.9,0-1.4,0c-0.2,0-0.4,0-0.6,0l-0.1,0c-0.2,0-0.3,0-0.4-0.2
		c-0.6-0.7-1.1-1.4-1.7-2.1l-1-1.2c-0.3-0.4-0.8-0.6-1.3-0.6l-1.9,0c-0.5,0-1,0-1.5,0c-0.7,0-1.2,0.5-1.2,1.3c0,0.1,0,0.2,0,0.3
		c-0.3,0-0.6,0-1,0l-1.2,0c-0.4,0-0.6-0.1-0.9-0.3c-1-0.8-2.1-1.7-3.2-2.5c-0.4-0.3-0.9-0.4-1.3-0.5c-1.3,0-2.5,0-3.8,0l-0.3,0
		c-0.2,0-0.4,0.1-0.5,0.1c0,0-0.1,0-0.1,0c-0.2,0.1-0.3,0.3-0.3,0.5v0.4c0,0.1,0,0.1,0,0.2l0.1,0.2c0,0.1,0.1,0.2,0.1,0.2l1.6,5.8
		c0.2,0.8,0.4,1.6,0.6,2.4c0,0.1,0,0.1,0,0.1c0,0-0.1,0-0.1,0l-0.3,0l-0.5,0l-0.5,0c-0.1,0-0.2,0-0.4,0.1c-0.2,0-0.3,0.2-0.4,0.3
		c-0.1,0.2,0,0.4,0.1,0.5l1.3,1.3c0.2,0.2,0.4,0.4,0.7,0.6c0.5,0.4,0.9,0.9,1.3,1.3c0.7,1,1.3,2,1.9,3c0.2,0.4,0.5,0.8,0.7,1.2
		c0.4,0.6,0.7,1.2,1.1,1.8c0.4,0.7,0.8,1.3,1.2,2c0.1,0.2,0.6,0.9,1.5,0.4l0.6-0.3c0.8-0.4,0.7-1,0.6-1.4c-0.1-0.3-0.2-0.5-0.3-0.7
		L246.2,13c-0.2-0.5-0.4-1-0.6-1.5c0,0,0,0,0,0c0,0,0.1,0,0.1,0c0.4,0,0.6,0,1,0.5c0.5,0.7,0.9,1.4,1.4,2.1l2.3,3.4
		c1.2,1.8,2.4,3.6,3.6,5.5c0.8,1.1,1.2,2.2,1.5,3.2c0.2,0.9,0.5,1.7,0.7,2.5c0.1,0.4,0.3,0.8,0.4,1.3c0.2,0.6,0.5,1,1,1.3
		c2.5,1.8,5.1,3.6,7.6,5.3c0.5,0.3,1,0.4,1.5,0.3l2.2-0.5c1.7-0.4,3.4-0.7,5.1-1.1c0.4-0.1,0.7-0.1,1,0.1c0.8,0.5,1.5,0.9,2.3,1.4
		l1.1,0.7c0.2,0.1,0.4,0.2,0.7,0.2c0.4,0,0.6-0.2,0.9-0.4l0.1-0.1c0.1-0.1,0.3-0.2,0.4-0.4c0.4-0.4,0.8-0.6,1.4-0.6
		c0.5,0,1.1,0,1.6,0l0.3,0c0.1,0,0.6,0,0.8-0.4c0.2-0.3,0.1-0.7,0-0.9c-0.1-0.2-0.2-0.4-0.3-0.6l-0.1-0.2c-0.1-0.2-0.1-0.3-0.1-0.3
		c0,0,0-0.1,0.2-0.2l0.4-0.4c1.4-1.4,2.7-2.7,4.1-4.1c0.6-0.6,1.4-1.3,1.5-2.5c0.1-0.4,0.2-0.8,0.3-1.3c0.1-0.2,0.1-0.4,0.2-0.6
		c0.1-0.3,0.1-0.7-0.1-1C290.4,23.8,290,23.8,289.8,23.8z M289.8,24.8c0,0.2-0.1,0.4-0.1,0.6c-0.1,0.4-0.2,0.9-0.3,1.4
		c-0.1,0.8-0.7,1.3-1.3,1.9c-1.4,1.4-2.7,2.7-4.1,4.1l-0.4,0.4c-0.5,0.5-0.6,0.9-0.3,1.6l0.1,0.2c0,0.1,0.1,0.2,0.2,0.3l-0.1,0
		c-0.5,0-1,0-1.5,0c-0.9-0.1-1.7,0.2-2.3,0.9c-0.1,0.1-0.2,0.2-0.3,0.3l-0.2,0.2c-0.1,0.1-0.2,0.1-0.2,0.1c0,0-0.1,0-0.2-0.1
		l-1.1-0.7c-0.8-0.4-1.5-0.9-2.3-1.4c-0.4-0.2-0.7-0.3-1.1-0.3c-0.2,0-0.4,0-0.6,0.1c-1.7,0.4-3.4,0.7-5.1,1.1l-2.2,0.5
		c-0.3,0.1-0.5,0-0.7-0.2c-2.5-1.8-5.1-3.6-7.6-5.3c-0.3-0.2-0.5-0.5-0.6-0.8c-0.1-0.4-0.2-0.9-0.4-1.3c-0.2-0.8-0.5-1.6-0.7-2.5
		c-0.3-1.2-0.8-2.3-1.6-3.6c-1.2-1.8-2.4-3.6-3.6-5.4l-2.3-3.4c-0.5-0.7-0.9-1.4-1.4-2.1c-0.5-0.7-1.1-1.1-1.9-1
		c-0.2,0-0.6,0.1-0.9,0.5c-0.2,0.3-0.2,0.6,0,0.9c0.2,0.5,0.4,1,0.6,1.5l4.8,11.8c0.1,0.2,0.2,0.5,0.3,0.7c0,0.1,0,0.1,0,0.1
		c0,0,0,0-0.1,0.1l-0.6,0.3c-0.1,0-0.1,0.1-0.1,0.1c0,0,0-0.1-0.1-0.1c-0.4-0.6-0.8-1.3-1.2-2c-0.4-0.6-0.7-1.2-1.1-1.8
		c-0.2-0.4-0.5-0.8-0.7-1.2c-0.6-1-1.2-2.1-1.9-3.1c-0.4-0.6-0.9-1-1.4-1.5c-0.2-0.2-0.4-0.4-0.6-0.6l-0.5-0.5l0.2,0l0.3,0
		c0.2,0,0.7,0,0.9-0.4c0.2-0.2,0.2-0.6,0.1-1c-0.2-0.8-0.4-1.6-0.6-2.4L241.3,6c0-0.1-0.1-0.2-0.1-0.4l0.3,0c1.2,0,2.5,0,3.7,0
		c0.3,0,0.6,0.1,0.8,0.3c1.1,0.8,2.2,1.7,3.2,2.5c0.5,0.4,1,0.5,1.6,0.5l1.2,0c0.4,0,0.7,0,1.1,0c0.3,0,0.5-0.1,0.7-0.3
		c0.2-0.2,0.2-0.4,0.2-0.7c0-0.1,0-0.2,0-0.4c0-0.3,0.1-0.3,0.2-0.3c0.5,0,1,0,1.5,0l1.9,0c0.1,0,0.3,0,0.5,0.3l1,1.2
		c0.6,0.7,1.1,1.4,1.7,2.1c0.3,0.4,0.7,0.6,1.2,0.6l0.1,0c0.2,0,0.4,0,0.6,0c0.5,0,0.9,0,1.6,0c0.3,0,0.6,0.1,0.8,0.5
		c0.5,0.8,1.1,1.5,1.6,2.2l1.1,1.6c0.5,0.7,1,1.4,1.5,2.1c0.3,0.4,0.4,0.8,0.4,1.3c-0.2,1.7-0.1,3.4,0.1,5.2
		c0.2,1.9,0.7,3.3,1.5,4.6c1.1,1.9,2.8,2.9,5.1,2.9c1.6,0,2.8-0.2,3.9-0.6c1.9-0.7,3.1-1.8,3.5-3.4c0.2-0.9,0.7-1.6,1.3-2.4
		c0.1-0.2,0.3-0.4,0.4-0.6c0-0.1,0.1-0.1,0.4-0.1c0.6,0,1.2,0,1.7,0l1.2,0L289.8,24.8C289.8,24.8,289.8,24.8,289.8,24.8
		C289.8,24.8,289.8,24.8,289.8,24.8z"/>
</g>
<g>
	<path fill="#C9CDCE" d="M449.8,2c-1,0-2.1,0.1-3.1,0.3c-0.1,0-0.2,0.1-0.3,0.2c-0.1,0.1-0.1,0.2-0.1,0.4l0.3,2
		c-1.8,0.3-3.5,1-5.1,1.9c-0.1,0.1-0.2,0.2-0.2,0.3c0,0.1,0,0.3,0,0.4l0.9,1.7c-4.2,2.5-6.8,7-6.9,11.9h-4.4c-0.3,0-0.5,0.2-0.5,0.5
		c0,9.6,6.9,17.6,16.3,19.2c0,0,0.1,0,0.1,0c0.2,0,0.5-0.2,0.5-0.4l0.3-2c0.8,0.1,1.5,0.2,2.2,0.2c5.1,0,9.8-2.2,13.1-6.2
		c0.1-0.1,0.1-0.2,0.1-0.4c0-0.1-0.1-0.3-0.2-0.3l-1.5-1.2c1.9-2.5,3-5.6,3-8.8c0-0.8-0.1-1.6-0.2-2.3l4.4-0.9
		c0.3-0.1,0.4-0.3,0.4-0.6C467.1,8.5,459.1,2,449.8,2z M446.8,5.8l2.1,12.9L443.4,9l0,0l-0.9-1.7C443.8,6.6,445.3,6.1,446.8,5.8z
		 M442.8,9.9l6.2,11h-12.6C436.5,16.4,438.9,12.3,442.8,9.9z M431.4,21.9h4.4h13.4l-2.9,17.6C437.8,37.9,431.6,30.6,431.4,21.9z
		 M449.8,37.3c-0.6,0-1.3,0-2.1-0.2l2.3-14.2l0.1-0.6l11.6,9.6C458.8,35.3,454.4,37.3,449.8,37.3z M460.6,29.6l-3.8-3.1l-5.8-4.8
		l12.2-2.4c0.1,0.7,0.2,1.4,0.2,2.1C463.3,24.4,462.4,27.2,460.6,29.6z M450.2,20.8l-2.9-17.7C448.2,3,449,3,449.8,3
		c8.6,0,16.1,6,18,14.3L450.2,20.8z"/>
</g>
<g>
	<path fill="#C9CDCE" d="M9.4,31.9H3.3c-0.7,0-1.2,0.6-1.2,1.2v6.1c0,0.7,0.6,1.2,1.2,1.2h6.1c0.7,0,1.2-0.6,1.2-1.2v-6.1
		C10.6,32.5,10.1,31.9,9.4,31.9z M9.6,39.3c0,0.1-0.1,0.2-0.2,0.2H3.3c-0.1,0-0.2-0.1-0.2-0.2v-6.1c0-0.1,0.1-0.2,0.2-0.2h6.1
		c0.1,0,0.2,0.1,0.2,0.2V39.3z"/>
	<path fill="#C9CDCE" d="M19.4,31.9h-6.1c-0.7,0-1.2,0.6-1.2,1.2v6.1c0,0.7,0.6,1.2,1.2,1.2h6.1c0.7,0,1.2-0.6,1.2-1.2v-6.1
		C20.6,32.5,20,31.9,19.4,31.9z M19.6,39.3c0,0.1-0.1,0.2-0.2,0.2h-6.1c-0.1,0-0.2-0.1-0.2-0.2v-6.1c0-0.1,0.1-0.2,0.2-0.2h6.1
		c0.1,0,0.2,0.1,0.2,0.2V39.3z"/>
	<path fill="#C9CDCE" d="M29.3,31.9h-6.1c-0.7,0-1.2,0.6-1.2,1.2v6.1c0,0.7,0.6,1.2,1.2,1.2h6.1c0.7,0,1.2-0.6,1.2-1.2v-6.1
		C30.6,32.5,30,31.9,29.3,31.9z M29.6,39.3c0,0.1-0.1,0.2-0.2,0.2h-6.1c-0.1,0-0.2-0.1-0.2-0.2v-6.1c0-0.1,0.1-0.2,0.2-0.2h6.1
		c0.1,0,0.2,0.1,0.2,0.2V39.3z"/>
	<path fill="#C9CDCE" d="M39.3,31.9h-6.1c-0.7,0-1.2,0.6-1.2,1.2v6.1c0,0.7,0.6,1.2,1.2,1.2h6.1c0.7,0,1.2-0.6,1.2-1.2v-6.1
		C40.5,32.5,40,31.9,39.3,31.9z M39.5,39.3c0,0.1-0.1,0.2-0.2,0.2h-6.1c-0.1,0-0.2-0.1-0.2-0.2v-6.1c0-0.1,0.1-0.2,0.2-0.2h6.1
		c0.1,0,0.2,0.1,0.2,0.2V39.3z"/>
	<path fill="#C9CDCE" d="M9.4,22H3.3C2.6,22,2,22.5,2,23.2v6.1c0,0.7,0.6,1.2,1.2,1.2h6.1c0.7,0,1.2-0.6,1.2-1.2v-6.1
		C10.6,22.5,10.1,22,9.4,22z M9.6,29.3c0,0.1-0.1,0.2-0.2,0.2H3.3c-0.1,0-0.2-0.1-0.2-0.2v-6.1C3,23.1,3.1,23,3.3,23h6.1
		c0.1,0,0.2,0.1,0.2,0.2V29.3z"/>
	<path fill="#C9CDCE" d="M19.4,22h-6.1c-0.7,0-1.2,0.6-1.2,1.2v6.1c0,0.7,0.6,1.2,1.2,1.2h6.1c0.7,0,1.2-0.6,1.2-1.2v-6.1
		C20.6,22.5,20,22,19.4,22z M19.6,29.3c0,0.1-0.1,0.2-0.2,0.2h-6.1c-0.1,0-0.2-0.1-0.2-0.2v-6.1c0-0.1,0.1-0.2,0.2-0.2h6.1
		c0.1,0,0.2,0.1,0.2,0.2V29.3z"/>
	<path fill="#C9CDCE" d="M29.3,22h-6.1c-0.7,0-1.2,0.6-1.2,1.2v6.1c0,0.7,0.6,1.2,1.2,1.2h6.1c0.7,0,1.2-0.6,1.2-1.2v-6.1
		C30.6,22.5,30,22,29.3,22z M29.6,29.3c0,0.1-0.1,0.2-0.2,0.2h-6.1c-0.1,0-0.2-0.1-0.2-0.2v-6.1c0-0.1,0.1-0.2,0.2-0.2h6.1
		c0.1,0,0.2,0.1,0.2,0.2V29.3z"/>
	<path fill="#C9CDCE" d="M39.3,22h-6.1c-0.7,0-1.2,0.6-1.2,1.2v6.1c0,0.7,0.6,1.2,1.2,1.2h6.1c0.7,0,1.2-0.6,1.2-1.2v-6.1
		C40.5,22.5,40,22,39.3,22z M39.5,29.3c0,0.1-0.1,0.2-0.2,0.2h-6.1c-0.1,0-0.2-0.1-0.2-0.2v-6.1c0-0.1,0.1-0.2,0.2-0.2h6.1
		c0.1,0,0.2,0.1,0.2,0.2V29.3z"/>
	<path fill="#C9CDCE" d="M9.4,12H3.3C2.6,12,2,12.5,2,13.2v6.1c0,0.7,0.6,1.2,1.2,1.2h6.1c0.7,0,1.2-0.6,1.2-1.2v-6.1
		C10.6,12.5,10.1,12,9.4,12z M9.6,19.4c0,0.1-0.1,0.2-0.2,0.2H3.3c-0.1,0-0.2-0.1-0.2-0.2v-6.1C3,13.1,3.1,13,3.3,13h6.1
		c0.1,0,0.2,0.1,0.2,0.2V19.4z"/>
	<path fill="#C9CDCE" d="M19.4,12h-6.1c-0.7,0-1.2,0.6-1.2,1.2v6.1c0,0.7,0.6,1.2,1.2,1.2h6.1c0.7,0,1.2-0.6,1.2-1.2v-6.1
		C20.6,12.5,20,12,19.4,12z M19.6,19.4c0,0.1-0.1,0.2-0.2,0.2h-6.1c-0.1,0-0.2-0.1-0.2-0.2v-6.1c0-0.1,0.1-0.2,0.2-0.2h6.1
		c0.1,0,0.2,0.1,0.2,0.2V19.4z"/>
	<path fill="#C9CDCE" d="M29.3,12h-6.1c-0.7,0-1.2,0.6-1.2,1.2v6.1c0,0.7,0.6,1.2,1.2,1.2h6.1c0.7,0,1.2-0.6,1.2-1.2v-6.1
		C30.6,12.5,30,12,29.3,12z M29.6,19.4c0,0.1-0.1,0.2-0.2,0.2h-6.1c-0.1,0-0.2-0.1-0.2-0.2v-6.1c0-0.1,0.1-0.2,0.2-0.2h6.1
		c0.1,0,0.2,0.1,0.2,0.2V19.4z"/>
	<path fill="#C9CDCE" d="M39.3,12h-6.1c-0.7,0-1.2,0.6-1.2,1.2v6.1c0,0.7,0.6,1.2,1.2,1.2h6.1c0.7,0,1.2-0.6,1.2-1.2v-6.1
		C40.5,12.5,40,12,39.3,12z M39.5,19.4c0,0.1-0.1,0.2-0.2,0.2h-6.1c-0.1,0-0.2-0.1-0.2-0.2v-6.1c0-0.1,0.1-0.2,0.2-0.2h6.1
		c0.1,0,0.2,0.1,0.2,0.2V19.4z"/>
	<path fill="#C9CDCE" d="M9.4,2H3.3C2.6,2,2,2.6,2,3.3v6.1c0,0.7,0.6,1.2,1.2,1.2h6.1c0.7,0,1.2-0.6,1.2-1.2V3.3
		C10.6,2.6,10.1,2,9.4,2z M9.6,9.4c0,0.1-0.1,0.2-0.2,0.2H3.3C3.1,9.6,3,9.5,3,9.4V3.3C3,3.1,3.1,3,3.3,3h6.1c0.1,0,0.2,0.1,0.2,0.2
		V9.4z"/>
	<path fill="#C9CDCE" d="M19.4,2h-6.1C12.5,2,12,2.6,12,3.3v6.1c0,0.7,0.6,1.2,1.2,1.2h6.1c0.7,0,1.2-0.6,1.2-1.2V3.3
		C20.6,2.6,20,2,19.4,2z M19.6,9.4c0,0.1-0.1,0.2-0.2,0.2h-6.1c-0.1,0-0.2-0.1-0.2-0.2V3.3C13,3.1,13.1,3,13.2,3h6.1
		c0.1,0,0.2,0.1,0.2,0.2V9.4z"/>
	<path fill="#C9CDCE" d="M29.3,2h-6.1C22.5,2,22,2.6,22,3.3v6.1c0,0.7,0.6,1.2,1.2,1.2h6.1c0.7,0,1.2-0.6,1.2-1.2V3.3
		C30.6,2.6,30,2,29.3,2z M29.6,9.4c0,0.1-0.1,0.2-0.2,0.2h-6.1c-0.1,0-0.2-0.1-0.2-0.2V3.3C23,3.1,23.1,3,23.2,3h6.1
		c0.1,0,0.2,0.1,0.2,0.2V9.4z"/>
	<path fill="#C9CDCE" d="M39.3,2h-6.1c-0.7,0-1.2,0.6-1.2,1.2v6.1c0,0.7,0.6,1.2,1.2,1.2h6.1c0.7,0,1.2-0.6,1.2-1.2V3.3
		C40.5,2.6,40,2,39.3,2z M39.5,9.4c0,0.1-0.1,0.2-0.2,0.2h-6.1c-0.1,0-0.2-0.1-0.2-0.2V3.3C32.9,3.1,33,3,33.2,3h6.1
		c0.1,0,0.2,0.1,0.2,0.2V9.4z"/>
</g>
</svg>
