<?xml version="1.0" encoding="utf-8"?>
<!-- Generator: Adobe Illustrator 18.0.0, SVG Export Plug-In . SVG Version: 6.00 Build 0)  -->
<!DOCTYPE svg PUBLIC "-//W3C//DTD SVG 1.1//EN" "http://www.w3.org/Graphics/SVG/1.1/DTD/svg11.dtd">
<svg version="1.1" id="Capa_1" xmlns="http://www.w3.org/2000/svg" xmlns:xlink="http://www.w3.org/1999/xlink" x="0px" y="0px"
	 viewBox="0 0 42.5 42.5" enable-background="new 0 0 42.5 42.5" xml:space="preserve">
<g>
	<path fill="#C9CDCE" d="M40,2H2.5C2.2,2,2,2.2,2,2.5v18.2V40c0,0.3,0.2,0.5,0.5,0.5h25.9H40c0.3,0,0.5-0.2,0.5-0.5v-7V20.7V2.5
		C40.5,2.2,40.3,2,40,2z M28.9,21.2h10.6v11.3H28.9V21.2z M3,3h36.5v17.2H28.4H3V3z M3,21.2h24.9V33v6.5H3V21.2z M39.5,39.5H28.9v-6
		h10.6V39.5z"/>
</g>
</svg>
